HIERARCHY
ROOT Hips
{
	OFFSET 0.000003 96.368652 -0.035689
	CHANNELS 6 Xposition Yposition Zposition Xrotation Yrotation Zrotation
	JOINT Spine
	{
		OFFSET 0.000010 9.226303 1.577100
		CHANNELS 6 Xposition Yposition Zposition Xrotation Yrotation Zrotation
		JOINT Spine1
		{
			OFFSET 0.000000 16.253998 -0.165600
			CHANNELS 6 Xposition Yposition Zposition Xrotation Yrotation Zrotation
			JOINT Spine2
			{
				OFFSET -0.000000 13.639587 -1.292299
				CHANNELS 6 Xposition Yposition Zposition Xrotation Yrotation Zrotation
				JOINT Neck
				{
					OFFSET 0.000000 13.877411 -4.354199
					CHANNELS 6 Xposition Yposition Zposition Xrotation Yrotation Zrotation
					JOINT Neck1
					{
						OFFSET 0.000000 4.339996 0.926899
						CHANNELS 6 Xposition Yposition Zposition Xrotation Yrotation Zrotation
						JOINT Head
						{
							OFFSET 0.000000 4.026611 0.858500
							CHANNELS 6 Xposition Yposition Zposition Xrotation Yrotation Zrotation
							JOINT HeadTop_End
							{
								OFFSET 0.000000 21.748810 0.000000
								CHANNELS 6 Xposition Yposition Zposition Xrotation Yrotation Zrotation
								End Site
								{
									OFFSET 0.000000 11.825378 0.000000
								}
							}
							JOINT L_Eye
							{
								OFFSET 3.005700 7.261795 7.955601
								CHANNELS 6 Xposition Yposition Zposition Xrotation Yrotation Zrotation
								End Site
								{
									OFFSET 0.000000 11.825378 0.000000
								}
							}
							JOINT R_Eye
							{
								OFFSET -3.005700 7.261795 7.955601
								CHANNELS 6 Xposition Yposition Zposition Xrotation Yrotation Zrotation
								End Site
								{
									OFFSET 0.000000 11.825378 0.000000
								}
							}
							JOINT Jaw
							{
								OFFSET 0.000000 2.030289 2.456200
								CHANNELS 6 Xposition Yposition Zposition Xrotation Yrotation Zrotation
								End Site
								{
									OFFSET 0.000000 11.825378 0.000000
								}
							}
						}
					}
				}
				JOINT L_Shoulder
				{
					OFFSET 6.144200 10.187012 -3.793198
					CHANNELS 6 Xposition Yposition Zposition Xrotation Yrotation Zrotation
					JOINT L_Arm
					{
						OFFSET 12.319103 -1.112991 -1.793500
						CHANNELS 3 Xrotation Yrotation Zrotation
						JOINT L_ForeArm
						{
							OFFSET 27.687006 -0.000015 -0.000000
							CHANNELS 3 Xrotation Yrotation Zrotation
							JOINT L_Hand
							{
								OFFSET 27.873787 0.000031 -0.000000
								CHANNELS 3 Xrotation Yrotation Zrotation
								JOINT L_HandThumb1
								{
									OFFSET 2.421021 -1.395554 2.392360
									CHANNELS 6 Xposition Yposition Zposition Xrotation Yrotation Zrotation
									JOINT L_HandThumb2
									{
										OFFSET 3.496521 -2.018692 2.018717
										CHANNELS 6 Xposition Yposition Zposition Xrotation Yrotation Zrotation
										JOINT L_HandThumb3
										{
											OFFSET 4.011398 -2.315994 2.315975
											CHANNELS 6 Xposition Yposition Zposition Xrotation Yrotation Zrotation
											JOINT L_HandThumb4
											{
												OFFSET 2.095787 -1.210007 1.209984
												CHANNELS 6 Xposition Yposition Zposition Xrotation Yrotation Zrotation
												End Site
												{
													OFFSET 1.877617 -1.197205 1.536803
												}
											}
										}
									}
								}
								JOINT L_HandIndex1
								{
									OFFSET 10.514771 -0.231369 2.264849
									CHANNELS 6 Xposition Yposition Zposition Xrotation Yrotation Zrotation
									JOINT L_HandIndex2
									{
										OFFSET 5.549301 0.000000 0.000000
										CHANNELS 3 Xrotation Yrotation Zrotation
										JOINT L_HandIndex3
										{
											OFFSET 3.391098 0.000000 0.000001
											CHANNELS 3 Xrotation Yrotation Zrotation
											JOINT L_HandIndex4
											{
												OFFSET 2.334351 0.000000 0.000011
												CHANNELS 6 Xposition Yposition Zposition Xrotation Yrotation Zrotation
												End Site
												{
													OFFSET 2.334351 0.000000 0.000101
												}
											}
										}
									}
								}
								JOINT L_HandMiddle1
								{
									OFFSET 10.490761 -0.000015 0.000002
									CHANNELS 6 Xposition Yposition Zposition Xrotation Yrotation Zrotation
									JOINT L_HandMiddle2
									{
										OFFSET 5.792099 0.000000 0.000000
										CHANNELS 3 Xrotation Yrotation Zrotation
										JOINT L_HandMiddle3
										{
											OFFSET 3.713196 0.000000 0.000000
											CHANNELS 3 Xrotation Yrotation Zrotation
											JOINT L_HandMiddle4
											{
												OFFSET 2.752045 -0.000031 0.000022
												CHANNELS 6 Xposition Yposition Zposition Xrotation Yrotation Zrotation
												End Site
												{
													OFFSET 2.752045 0.000031 -0.003599
												}
											}
										}
									}
								}
								JOINT L_HandRing1
								{
									OFFSET 10.240753 -0.046051 -2.314147
									CHANNELS 6 Xposition Yposition Zposition Xrotation Yrotation Zrotation
									JOINT L_HandRing2
									{
										OFFSET 5.445206 -0.000015 0.000676
										CHANNELS 3 Xrotation Yrotation Zrotation
										JOINT L_HandRing3
										{
											OFFSET 3.713196 0.000015 -0.000674
											CHANNELS 3 Xrotation Yrotation Zrotation
											JOINT L_HandRing4
											{
												OFFSET 2.280716 0.000000 -0.000046
												CHANNELS 3 Xrotation Yrotation Zrotation
												End Site
												{
													OFFSET 2.280716 -0.000061 0.003501
												}
											}
										}
									}
								}
								JOINT L_HandPinky1
								{
									OFFSET 9.820259 -0.209747 -4.418469
									CHANNELS 6 Xposition Yposition Zposition Xrotation Yrotation Zrotation
									JOINT L_HandPinky2
									{
										OFFSET 3.676300 0.000000 0.000000
										CHANNELS 3 Xrotation Yrotation Zrotation
										JOINT L_HandPinky3
										{
											OFFSET 2.811295 0.000000 0.000001
											CHANNELS 3 Xrotation Yrotation Zrotation
											JOINT L_HandPinky4
											{
												OFFSET 1.659546 0.000000 0.000000
												CHANNELS 3 Xrotation Yrotation Zrotation
												End Site
												{
													OFFSET 1.659546 0.000015 -0.001891
												}
											}
										}
									}
								}
							}
						}
					}
				}
				JOINT R_Shoulder
				{
					OFFSET -6.140200 10.187012 -3.793198
					CHANNELS 6 Xposition Yposition Zposition Xrotation Yrotation Zrotation
					JOINT R_Arm
					{
						OFFSET -12.323095 -1.113007 -1.793499
						CHANNELS 3 Xrotation Yrotation Zrotation
						JOINT R_ForeArm
						{
							OFFSET -27.687002 0.000015 -0.000002
							CHANNELS 3 Xrotation Yrotation Zrotation
							JOINT R_Hand
							{
								OFFSET -27.873795 -0.000015 0.000000
								CHANNELS 3 Xrotation Yrotation Zrotation
								JOINT R_HandPinky1
								{
									OFFSET -9.791023 -0.212921 -4.378341
									CHANNELS 6 Xposition Yposition Zposition Xrotation Yrotation Zrotation
									JOINT R_HandPinky2
									{
										OFFSET -3.652802 0.000000 0.000000
										CHANNELS 3 Xrotation Yrotation Zrotation
										JOINT R_HandPinky3
										{
											OFFSET -2.781998 0.000000 0.000000
											CHANNELS 3 Xrotation Yrotation Zrotation
											JOINT R_HandPinky4
											{
												OFFSET -1.612122 0.000198 0.000004
												CHANNELS 3 Xrotation Yrotation Zrotation
												End Site
												{
													OFFSET -1.612106 0.000320 -0.007100
												}
											}
										}
									}
								}
								JOINT R_HandRing1
								{
									OFFSET -10.391914 0.105164 -2.349891
									CHANNELS 6 Xposition Yposition Zposition Xrotation Yrotation Zrotation
									JOINT R_HandRing2
									{
										OFFSET -5.401306 0.000000 0.000000
										CHANNELS 3 Xrotation Yrotation Zrotation
										JOINT R_HandRing3
										{
											OFFSET -3.391602 0.000000 0.000000
											CHANNELS 3 Xrotation Yrotation Zrotation
											JOINT R_HandRing4
											{
												OFFSET -2.353172 0.000305 -0.000032
												CHANNELS 3 Xrotation Yrotation Zrotation
												End Site
												{
													OFFSET -2.353180 0.000275 0.001400
												}
											}
										}
									}
								}
								JOINT R_HandMiddle1
								{
									OFFSET -10.779236 0.000000 0.000001
									CHANNELS 6 Xposition Yposition Zposition Xrotation Yrotation Zrotation
									JOINT R_HandMiddle2
									{
										OFFSET -5.616806 0.000000 0.000000
										CHANNELS 3 Xrotation Yrotation Zrotation
										JOINT R_HandMiddle3
										{
											OFFSET -3.736397 0.000000 0.000000
											CHANNELS 3 Xrotation Yrotation Zrotation
											JOINT R_HandMiddle4
											{
												OFFSET -2.691521 0.000336 -0.000028
												CHANNELS 3 Xrotation Yrotation Zrotation
												End Site
												{
													OFFSET -2.691513 0.000214 0.009200
												}
											}
										}
									}
								}
								JOINT R_HandIndex1
								{
									OFFSET -10.577324 -0.175369 2.287349
									CHANNELS 6 Xposition Yposition Zposition Xrotation Yrotation Zrotation
									JOINT R_HandIndex2
									{
										OFFSET -5.376801 0.000000 0.000001
										CHANNELS 3 Xrotation Yrotation Zrotation
										JOINT R_HandIndex3
										{
											OFFSET -3.385498 0.000000 0.000001
											CHANNELS 3 Xrotation Yrotation Zrotation
											JOINT R_HandIndex4
											{
												OFFSET -2.363556 0.000305 0.000042
												CHANNELS 3 Xrotation Yrotation Zrotation
												End Site
												{
													OFFSET -2.363548 0.000381 -0.006501
												}
											}
										}
									}
								}
								JOINT R_HandThumb1
								{
									OFFSET -2.570442 -1.245102 2.319054
									CHANNELS 6 Xposition Yposition Zposition Xrotation Yrotation Zrotation
									JOINT R_HandThumb2
									{
										OFFSET -3.518791 -2.031555 2.031563
										CHANNELS 6 Xposition Yposition Zposition Xrotation Yrotation Zrotation
										JOINT R_HandThumb3
										{
											OFFSET -3.945267 -2.277756 2.277756
											CHANNELS 6 Xposition Yposition Zposition Xrotation Yrotation Zrotation
											JOINT R_HandThumb4
											{
												OFFSET -2.055496 -1.186386 1.186664
												CHANNELS 3 Xrotation Yrotation Zrotation
												End Site
												{
													OFFSET -1.840202 -1.174805 1.508071
												}
											}
										}
									}
								}
							}
						}
					}
				}
			}
		}
	}
	JOINT L_UpLeg
	{
		OFFSET 9.633796 -3.273308 -0.000000
		CHANNELS 6 Xposition Yposition Zposition Xrotation Yrotation Zrotation
		JOINT L_Leg
		{
			OFFSET -0.006490 -41.762173 -0.553830
			CHANNELS 3 Xrotation Yrotation Zrotation
			JOINT L_Foot
			{
				OFFSET 0.006493 -39.146984 -2.021915
				CHANNELS 3 Xrotation Yrotation Zrotation
				JOINT L_ToeBase
				{
					OFFSET -0.183300 -12.185708 8.282301
					CHANNELS 6 Xposition Yposition Zposition Xrotation Yrotation Zrotation
					JOINT L_Toe_End
					{
						OFFSET -0.094684 -0.116787 6.663326
						CHANNELS 3 Xrotation Yrotation Zrotation
						End Site
						{
							OFFSET -0.094684 -0.116787 6.663328
						}
					}
				}
			}
		}
	}
	JOINT R_UpLeg
	{
		OFFSET -9.633803 -3.273293 0.000000
		CHANNELS 6 Xposition Yposition Zposition Xrotation Yrotation Zrotation
		JOINT R_Leg
		{
			OFFSET -0.006491 -41.762146 -0.555884
			CHANNELS 3 Xrotation Yrotation Zrotation
			JOINT R_Foot
			{
				OFFSET 0.006493 -39.147087 -2.019920
				CHANNELS 3 Xrotation Yrotation Zrotation
				JOINT R_ToeBase
				{
					OFFSET -0.183299 -12.185700 8.282300
					CHANNELS 6 Xposition Yposition Zposition Xrotation Yrotation Zrotation
					JOINT R_Toe_End
					{
						OFFSET 0.094687 -0.116863 6.675869
						CHANNELS 3 Xrotation Yrotation Zrotation
						End Site
						{
							OFFSET 0.094687 -0.116863 6.675869
						}
					}
				}
			}
		}
	}
}
MOTION
Frames: 4
Frame Time: 0.033333
-0.064599 84.395798 0.099129 3.053102 -48.097284 6.075593 0.000012 9.226313 1.577099 -0.004093 0.060316 -4.546127 0.000001 16.254002 -0.165600 22.060475 11.054591 2.381506 0.000002 13.639568 -1.292303 19.416488 13.665644 4.905094 -0.000005 13.877397 -4.354195 -7.960716 0.853257 2.200896 0.000004 4.339996 0.926909 -0.000003 0.000002 0.000001 -0.000001 4.026617 0.858513 -8.773065 22.743610 -10.057200 0.000004 21.748795 0.000001 -0.000000 -0.000000 -0.000001 3.005703 7.261780 7.955601 -0.000000 -0.000000 -0.000001 -3.005696 7.261795 7.955600 -0.000000 -0.000000 -0.000001 0.000007 2.030304 2.456197 -0.000000 -0.000000 -0.000001 6.144202 10.186999 -3.793210 -4.310876 -33.695212 -5.860872 -57.569411 -5.105992 -51.216218 -89.287054 19.330859 -81.879939 -32.797103 -2.742659 3.108349 2.421012 -1.395556 2.392363 0.699373 9.503640 -2.418222 3.496513 -2.018691 2.018717 5.975143 12.647609 1.348449 4.011391 -2.315995 2.315986 -23.873507 -17.664333 1.604750 2.095786 -1.210005 1.209993 0.000003 0.000003 0.000004 10.514759 -0.231372 2.264854 9.479733 -1.289640 -20.785563 0.709584 2.796618 -28.466910 0.714100 2.805016 -28.559806 2.334320 0.000016 0.000011 -0.000001 -0.000001 0.000000 10.490748 -0.000031 0.000004 10.058186 -1.800471 -20.644723 1.774451 4.200738 -45.781959 1.632369 4.058134 -43.809294 2.752055 -0.000042 0.000025 0.000000 0.000001 0.000002 10.240747 -0.046060 -2.314147 1.256463 -0.066895 -17.945543 3.744587 5.453161 -68.964270 5.298084 9.647992 -33.747579 0.000002 0.000000 0.000000 9.820255 -0.209749 -4.418466 -7.938287 1.609115 -6.495690 2.210774 4.584016 -51.475130 0.883896 3.096285 -31.858092 0.000003 -0.000002 -0.000001 -6.140199 10.187002 -3.793203 -0.080172 -6.712940 -0.143252 -17.493125 49.379293 40.824088 41.530627 125.651220 -53.381996 0.550828 -0.546983 -4.982324 -9.791019 -0.212919 -4.378347 -17.635847 -10.496828 3.325278 4.994442 -4.645781 94.147956 3.648019 -4.547251 77.470697 0.000001 -0.000001 -0.000000 -10.391910 0.105171 -2.349898 -12.155662 -12.624054 9.228261 6.567919 -4.249072 114.232298 3.754958 -4.569698 78.826906 0.000000 0.000000 -0.000001 -10.779238 -0.000002 -0.000007 3.764143 -12.080492 1.143713 5.715095 -4.536459 103.133384 3.160367 -4.411089 71.242076 0.000000 0.000001 -0.000000 -10.577328 -0.175358 2.287329 0.357766 -5.832780 5.175817 0.094352 -0.933712 11.539792 0.778336 -2.579730 33.567204 0.000001 -0.000001 0.000000 -2.570430 -1.245120 2.319041 13.942774 -4.273671 -5.299978 -3.518803 -2.031549 2.031552 7.113217 -20.767532 -2.619628 -3.945266 -2.277749 2.277751 -3.460571 -24.899335 -18.653817 -0.000003 -0.000000 0.000002 9.633797 -3.273300 0.000002 -51.763439 11.324717 -1.307744 72.908014 3.445408 6.754677 4.798805 0.089858 -11.754017 -0.183301 -12.185708 8.282303 1.175023 0.365170 5.254981 -0.000004 -0.000001 0.000001 -9.633805 -3.273291 0.000003 -30.767113 -12.482632 -11.322511 62.411707 -1.698558 3.650536 -35.312966 3.156260 -1.609576 -0.183299 -12.185702 8.282302 -0.002878 1.072794 0.000421 -0.000000 -0.000001 -0.000000 
-1.253000 85.011826 0.017111 3.265393 -46.779966 6.041584 0.000010 9.226317 1.577100 -0.110327 -0.624110 -4.455572 0.000000 16.254007 -0.165601 22.063849 11.042490 2.367494 0.000001 13.639607 -1.292304 19.415279 13.658012 4.885761 0.000001 13.877379 -4.354194 -7.953594 0.679252 2.147810 0.000004 4.340012 0.926901 0.000001 0.000001 0.000001 -0.000008 4.026616 0.858497 -8.714009 22.391898 -10.141774 -0.000006 21.748795 0.000002 -0.000001 0.000001 0.000001 3.005698 7.261795 7.955597 -0.000001 0.000001 0.000001 -3.005699 7.261795 7.955595 -0.000001 0.000001 0.000001 -0.000002 2.030289 2.456195 -0.000001 0.000001 0.000001 6.144208 10.187015 -3.793209 -5.521510 -34.426858 -7.085752 -57.272632 -5.234956 -51.022859 -89.095542 17.456739 -82.107671 -33.840046 -2.485373 4.002432 2.421019 -1.395560 2.392363 0.699373 9.503647 -2.418225 3.496515 -2.018672 2.018711 5.975138 12.647606 1.348442 4.011406 -2.315953 2.315975 -23.873500 -17.664334 1.604754 2.095769 -1.209988 1.210000 0.000000 -0.000006 0.000001 10.514774 -0.231370 2.264850 9.479732 -1.289633 -20.785563 0.709586 2.796612 -28.466910 0.714104 2.805012 -28.559806 2.334335 0.000000 0.000009 0.000000 -0.000001 0.000000 10.490764 -0.000021 0.000004 10.058188 -1.800471 -20.644723 1.774449 4.200735 -45.781966 1.632367 4.058132 -43.809294 2.752049 -0.000045 0.000028 -0.000002 -0.000001 -0.000002 10.240755 -0.046058 -2.314148 1.256465 -0.066891 -17.945542 3.744585 5.453165 -68.964263 5.298074 9.647991 -33.747575 0.000002 0.000004 -0.000001 9.820256 -0.209746 -4.418469 -7.938286 1.609119 -6.495687 2.210770 4.584016 -51.475130 0.883899 3.096280 -31.858092 -0.000000 -0.000001 -0.000001 -6.140194 10.186995 -3.793199 -1.354933 -7.755898 0.299216 -15.256279 50.185911 39.162833 42.779896 126.763065 -54.578580 1.364234 0.088796 -5.526304 -9.791027 -0.212906 -4.378343 -17.635847 -10.496829 3.325278 4.994442 -4.645782 94.147956 3.648019 -4.547248 77.470697 0.000002 -0.000000 -0.000000 -10.391923 0.105202 -2.349898 -12.155663 -12.624057 9.228258 6.567920 -4.249072 114.232298 3.754957 -4.569699 78.826913 -0.000000 0.000000 -0.000002 -10.779244 -0.000001 -0.000003 3.764143 -12.080495 1.143712 5.715094 -4.536458 103.133377 3.160366 -4.411089 71.242070 0.000000 0.000000 0.000000 -10.577330 -0.175342 2.287343 0.357767 -5.832782 5.175818 0.094350 -0.933711 11.539794 0.778336 -2.579728 33.567204 0.000000 -0.000001 0.000001 -2.570440 -1.245122 2.319049 13.942773 -4.273672 -5.299975 -3.518798 -2.031543 2.031539 7.113219 -20.767533 -2.619624 -3.945266 -2.277743 2.277754 -3.460570 -24.899337 -18.653820 -0.000000 0.000001 0.000004 9.633794 -3.273299 -0.000009 -46.960245 8.189402 3.587277 76.896114 3.041752 6.576836 2.960954 0.079840 -7.329868 -0.183302 -12.185707 8.282302 1.545301 0.133079 3.645250 -0.000005 0.000002 -0.000003 -9.633807 -3.273291 0.000006 -33.965428 -11.422300 -13.445130 61.426316 -2.208117 3.484725 -31.158893 2.410898 0.196464 -0.183300 -12.185700 8.282301 -0.002877 1.072828 0.000418 -0.000000 -0.000001 -0.000000 
-2.160577 85.031097 0.033693 3.505159 -45.440849 6.074324 0.000010 9.226293 1.577100 -0.242760 -1.326401 -4.401303 -0.000000 16.253981 -0.165599 22.115920 11.040251 2.375121 0.000003 13.639598 -1.292304 19.463063 13.669504 4.894024 -0.000001 13.877391 -4.354194 -7.947856 0.534942 2.103945 0.000004 4.340012 0.926906 -0.000002 0.000002 -0.000001 0.000005 4.026609 0.858498 -8.664795 22.100351 -10.211823 -0.000000 21.748795 -0.000001 -0.000002 -0.000000 -0.000001 3.005696 7.261780 7.955601 -0.000002 -0.000000 -0.000001 -3.005704 7.261780 7.955600 -0.000002 -0.000000 -0.000001 -0.000001 2.030273 2.456195 -0.000002 -0.000000 -0.000001 6.144200 10.186996 -3.793202 -6.956184 -35.294248 -8.486361 -57.043448 -5.201288 -50.534794 -88.805129 15.127365 -82.638862 -35.509255 -2.359574 5.252033 2.421020 -1.395550 2.392367 0.699369 9.503645 -2.418226 3.496516 -2.018690 2.018710 5.975140 12.647611 1.348444 4.011402 -2.315975 2.315986 -23.873507 -17.664336 1.604753 2.095777 -1.210024 1.209977 -0.000001 -0.000002 0.000004 10.514778 -0.231370 2.264852 9.479733 -1.289636 -20.785563 0.709585 2.796617 -28.466915 0.714104 2.805014 -28.559804 2.334341 0.000014 0.000008 0.000001 -0.000001 0.000001 10.490760 -0.000033 0.000007 10.058184 -1.800465 -20.644721 1.774450 4.200736 -45.781962 1.632364 4.058134 -43.809294 2.752057 -0.000045 0.000030 0.000000 -0.000000 0.000001 10.240759 -0.046058 -2.314144 1.256462 -0.066894 -17.945540 3.744586 5.453165 -68.964270 5.298078 9.647992 -33.747579 0.000001 0.000000 -0.000001 9.820258 -0.209749 -4.418465 -7.938287 1.609117 -6.495688 2.210768 4.584017 -51.475130 0.883895 3.096284 -31.858089 0.000002 -0.000000 -0.000001 -6.140195 10.186978 -3.793207 -2.545723 -9.331136 0.740418 -13.773859 51.637565 37.833535 44.065539 127.844885 -55.832343 2.081489 0.372954 -6.042443 -9.791023 -0.212921 -4.378336 -17.635849 -10.496827 3.325279 4.994443 -4.645782 94.147956 3.648019 -4.547248 77.470697 -0.000001 -0.000000 -0.000000 -10.391921 0.105184 -2.349891 -12.155661 -12.624053 9.228261 6.567920 -4.249071 114.232298 3.754958 -4.569698 78.826913 -0.000000 -0.000002 -0.000000 -10.779238 -0.000001 0.000001 3.764143 -12.080496 1.143713 5.715094 -4.536459 103.133384 3.160366 -4.411089 71.242076 -0.000000 0.000000 0.000000 -10.577330 -0.175359 2.287346 0.357766 -5.832780 5.175818 0.094351 -0.933713 11.539793 0.778335 -2.579730 33.567204 0.000001 0.000000 -0.000002 -2.570432 -1.245120 2.319049 13.942773 -4.273672 -5.299975 -3.518809 -2.031547 2.031544 7.113216 -20.767535 -2.619626 -3.945259 -2.277758 2.277754 -3.460571 -24.899333 -18.653817 -0.000003 0.000002 0.000002 9.633796 -3.273317 -0.000000 -41.430299 5.152173 8.406771 77.442242 2.946068 7.007367 3.107229 -0.164818 -0.852411 -0.183298 -12.185708 8.282298 2.263571 0.029801 -0.454748 0.000001 -0.000001 -0.000002 -9.633805 -3.273302 0.000003 -37.440095 -9.830603 -15.836953 61.115822 -2.740789 3.381731 -27.210283 1.712364 2.274118 -0.183301 -12.185699 8.282302 -0.002873 1.072794 0.000422 -0.000000 -0.000001 -0.000000 
-3.156180 84.234314 0.137359 3.745965 -44.095951 6.160065 0.000010 9.226306 1.577100 -0.386921 -2.039739 -4.414342 0.000001 16.254002 -0.165601 22.164348 11.020225 2.387460 0.000005 13.639604 -1.292306 19.505055 13.673475 4.908999 0.000005 13.877391 -4.354201 -7.943381 0.419168 2.068470 0.000001 4.339996 0.926909 0.000000 -0.000001 -0.000001 0.000000 4.026589 0.858505 -8.625229 21.866200 -10.268817 -0.000005 21.748825 0.000004 -0.000001 0.000001 0.000003 3.005698 7.261810 7.955602 -0.000001 0.000001 0.000003 -3.005705 7.261810 7.955606 -0.000001 0.000001 0.000003 -0.000009 2.030289 2.456207 -0.000001 0.000001 0.000003 6.144204 10.187000 -3.793198 -8.168712 -36.283034 -9.504627 -56.984449 -4.837331 -49.897619 -88.908231 17.754013 -82.809029 -32.432378 -2.229435 6.106335 2.421017 -1.395532 2.392368 0.699369 9.503645 -2.418225 3.496511 -2.018681 2.018719 5.975143 12.647606 1.348443 4.011398 -2.315989 2.315975 -23.873507 -17.664333 1.604754 2.095781 -1.210008 1.209991 -0.000001 -0.000003 0.000003 10.514774 -0.231386 2.264853 9.479733 -1.289636 -20.785565 0.709586 2.796612 -28.466917 0.714100 2.805015 -28.559804 2.334342 0.000031 0.000016 -0.000000 -0.000001 0.000001 10.490764 -0.000022 0.000004 10.058184 -1.800470 -20.644723 1.774451 4.200737 -45.781962 1.632362 4.058136 -43.809294 2.752052 -0.000031 0.000025 -0.000000 0.000000 0.000000 10.240759 -0.046043 -2.314144 1.256464 -0.066890 -17.945540 3.744586 5.453165 -68.964263 5.298078 9.647992 -33.747575 0.000001 0.000001 0.000004 9.820258 -0.209748 -4.418467 -7.938288 1.609119 -6.495688 2.210771 4.584017 -51.475137 0.883895 3.096285 -31.858096 0.000001 0.000003 -0.000002 -6.140199 10.186999 -3.793199 -3.097034 -10.158323 0.854555 -13.474097 52.144977 37.703406 44.997805 128.750541 -56.648407 3.038677 0.542077 -6.246983 -9.791026 -0.212906 -4.378346 -17.635847 -10.496829 3.325278 4.994441 -4.645781 94.147956 3.648019 -4.547249 77.470697 0.000000 0.000000 0.000000 -10.391915 0.105185 -2.349912 -12.155662 -12.624053 9.228259 6.567920 -4.249072 114.232298 3.754958 -4.569698 78.826906 -0.000000 -0.000000 -0.000000 -10.779238 -0.000002 -0.000011 3.764143 -12.080496 1.143713 5.715094 -4.536458 103.133377 3.160365 -4.411089 71.242070 -0.000000 0.000000 -0.000000 -10.577335 -0.175359 2.287335 0.357767 -5.832782 5.175817 0.094352 -0.933711 11.539796 0.778337 -2.579728 33.567204 0.000000 0.000000 -0.000003 -2.570439 -1.245125 2.319035 13.942775 -4.273673 -5.299977 -3.518801 -2.031564 2.031549 7.113218 -20.767537 -2.619626 -3.945262 -2.277745 2.277741 -3.460568 -24.899332 -18.653820 -0.000003 0.000003 0.000002 9.633792 -3.273307 -0.000002 -35.642953 3.126389 13.461541 74.708152 3.344500 8.008373 6.045701 -0.233161 4.365314 -0.183300 -12.185710 8.282298 1.300978 -0.161549 -3.529573 -0.000003 0.000001 -0.000003 -9.633807 -3.273298 0.000001 -41.145650 -7.559601 -18.331531 62.037707 -3.324537 3.397146 -23.950593 1.042006 4.580044 -0.183301 -12.185699 8.282300 -0.002875 1.072820 0.000419 -0.000000 -0.000001 -0.000000 
